{
    "asset" : {
        "generator" : "Khronos glTF Blender I/O v1.4.40",
        "version" : "2.0"
    },
    "scene" : 0,
    "scenes" : [
        {
            "name" : "Scene",
            "nodes" : [
                0,
                1,
                2
            ]
        }
    ],
    "nodes" : [
        {
            "mesh" : 0,
            "name" : "title_text",
            "rotation" : [
                0.7071068286895752,
                0,
                0,
                0.7071068286895752
            ],
            "scale" : [
                4.269894123077393,
                4.269894123077393,
                4.269894123077393
            ],
            "translation" : [
                2.7608346939086914,
                -0.47194182872772217,
                0.23848505318164825
            ]
        },
        {
            "mesh" : 1,
            "name" : "new_game_text",
            "rotation" : [
                0.7071068286895752,
                0,
                0,
                0.7071068286895752
            ],
            "scale" : [
                2.412935256958008,
                2.412935256958008,
                2.412935256958008
            ],
            "translation" : [
                -6.230106830596924,
                -4.12357234954834,
                -0.8441665172576904
            ]
        },
        {
            "mesh" : 2,
            "name" : "help_text",
            "rotation" : [
                0.7071068286895752,
                0,
                0,
                0.7071068286895752
            ],
            "scale" : [
                2.412935256958008,
                2.412935256958008,
                2.412935256958008
            ],
            "translation" : [
                -3.319291114807129,
                -7.787232875823975,
                -0.9808336496353149
            ]
        }
    ],
    "materials" : [
        {
            "doubleSided" : true,
            "name" : "title_text",
            "pbrMetallicRoughness" : {
                "baseColorFactor" : [
                    0.8000000715255737,
                    0.7292410135269165,
                    0.11072106659412384,
                    1
                ],
                "metallicFactor" : 0,
                "roughnessFactor" : 0.5
            }
        }
    ],
    "meshes" : [
        {
            "name" : "Text.001",
            "primitives" : [
                {
                    "attributes" : {
                        "POSITION" : 0,
                        "NORMAL" : 1,
                        "TEXCOORD_0" : 2
                    },
                    "indices" : 3,
                    "material" : 0
                }
            ]
        },
        {
            "name" : "Text.002",
            "primitives" : [
                {
                    "attributes" : {
                        "POSITION" : 4,
                        "NORMAL" : 5,
                        "TEXCOORD_0" : 6
                    },
                    "indices" : 7,
                    "material" : 0
                }
            ]
        },
        {
            "name" : "Text.003",
            "primitives" : [
                {
                    "attributes" : {
                        "POSITION" : 8,
                        "NORMAL" : 9,
                        "TEXCOORD_0" : 10
                    },
                    "indices" : 11,
                    "material" : 0
                }
            ]
        }
    ],
    "accessors" : [
        {
            "bufferView" : 0,
            "componentType" : 5126,
            "count" : 48146,
            "max" : [
                3.1096043586730957,
                0.15194830298423767,
                0.2972952127456665
            ],
            "min" : [
                -3.441938638687134,
                -0.15397214889526367,
                -1.5385472774505615
            ],
            "type" : "VEC3"
        },
        {
            "bufferView" : 1,
            "componentType" : 5126,
            "count" : 48146,
            "type" : "VEC3"
        },
        {
            "bufferView" : 2,
            "componentType" : 5126,
            "count" : 48146,
            "type" : "VEC2"
        },
        {
            "bufferView" : 3,
            "componentType" : 5123,
            "count" : 68250,
            "type" : "SCALAR"
        },
        {
            "bufferView" : 4,
            "componentType" : 5126,
            "count" : 3225,
            "max" : [
                5.022097587585449,
                0,
                0.01712980680167675
            ],
            "min" : [
                0.015607156790792942,
                0,
                -0.5759421586990356
            ],
            "type" : "VEC3"
        },
        {
            "bufferView" : 5,
            "componentType" : 5126,
            "count" : 3225,
            "type" : "VEC3"
        },
        {
            "bufferView" : 6,
            "componentType" : 5126,
            "count" : 3225,
            "type" : "VEC2"
        },
        {
            "bufferView" : 7,
            "componentType" : 5123,
            "count" : 7281,
            "type" : "SCALAR"
        },
        {
            "bufferView" : 8,
            "componentType" : 5126,
            "count" : 1302,
            "max" : [
                2.2569470405578613,
                0,
                0.19489912688732147
            ],
            "min" : [
                0.015607156790792942,
                0,
                -0.5607156753540039
            ],
            "type" : "VEC3"
        },
        {
            "bufferView" : 9,
            "componentType" : 5126,
            "count" : 1302,
            "type" : "VEC3"
        },
        {
            "bufferView" : 10,
            "componentType" : 5126,
            "count" : 1302,
            "type" : "VEC2"
        },
        {
            "bufferView" : 11,
            "componentType" : 5123,
            "count" : 2934,
            "type" : "SCALAR"
        }
    ],
    "bufferViews" : [
        {
            "buffer" : 0,
            "byteLength" : 577752,
            "byteOffset" : 0
        },
        {
            "buffer" : 0,
            "byteLength" : 577752,
            "byteOffset" : 577752
        },
        {
            "buffer" : 0,
            "byteLength" : 385168,
            "byteOffset" : 1155504
        },
        {
            "buffer" : 0,
            "byteLength" : 136500,
            "byteOffset" : 1540672
        },
        {
            "buffer" : 0,
            "byteLength" : 38700,
            "byteOffset" : 1677172
        },
        {
            "buffer" : 0,
            "byteLength" : 38700,
            "byteOffset" : 1715872
        },
        {
            "buffer" : 0,
            "byteLength" : 25800,
            "byteOffset" : 1754572
        },
        {
            "buffer" : 0,
            "byteLength" : 14562,
            "byteOffset" : 1780372
        },
        {
            "buffer" : 0,
            "byteLength" : 15624,
            "byteOffset" : 1794936
        },
        {
            "buffer" : 0,
            "byteLength" : 15624,
            "byteOffset" : 1810560
        },
        {
            "buffer" : 0,
            "byteLength" : 10416,
            "byteOffset" : 1826184
        },
        {
            "buffer" : 0,
            "byteLength" : 5868,
            "byteOffset" : 1836600
        }
    ],
    "buffers" : [
        {
            "byteLength" : 1842468,
            "uri" : "data:application/octet-stream;base64,"
        }
    ]
}
